<?xml version="1.0" encoding="utf-8"?>
<!-- Designed by Vexels.com - 2016 All Rights Reserved - https://vexels.com/terms-and-conditions/  -->

<svg version="1.1" id="Capa_1" xmlns="http://www.w3.org/2000/svg" xmlns:xlink="http://www.w3.org/1999/xlink" x="0px" y="0px"
	 width="1200px" height="1200px" viewBox="0 0 1200 1200" enable-background="new 0 0 1200 1200" xml:space="preserve">
<g id="VEXELS">
</g>
<g>
	<g id="BACKGROUND">
		<g>
			<circle fill="#C02127" cx="599.999" cy="600" r="550"/>
			<g>
				<path fill="#FFFFFF" d="M674.095,566.582c-64.102-0.712-128.21-0.608-192.313-0.154c-3.909,0.031-11.063,4.436-11.156,7.006
					c-0.865,23.775-0.51,47.596-0.51,72.609c43.203,0,83.729,0,125.528,0c-3.433,45.178-43.95,82.764-98.431,93.592
					c-60.543,12.035-123.122-20.994-150.924-79.662c-26.836-56.617-11.633-126.405,35.508-167.313
					c41.701-36.188,115.758-52.248,180.592,0.485c20.322-19.45,40.781-39.028,60.813-58.205c-1.439-2.865-1.748-4.052-2.492-4.85
					c-1.547-1.666-3.248-3.211-5.012-4.66c-50.764-41.848-108.537-59.164-173.996-49.811
					c-135.296,19.337-222.731,146.192-190.811,277.918c27.461,113.311,137.118,185.516,250.93,171.625
					c140.732-17.174,199.404-140.229,185.088-247.527C686.335,573.291,678.566,566.625,674.095,566.582z"/>
				<path fill="#FFFFFF" d="M938.503,565.463h-45.834v-45.837c0-9.488-7.697-17.182-17.186-17.182h-33.809
					c-9.488,0-17.182,7.693-17.182,17.182v45.837h-45.848c-9.484,0-17.182,7.694-17.182,17.185v33.801
					c0,9.498,7.697,17.182,17.182,17.182h45.848v45.844c0,9.494,7.693,17.182,17.182,17.182h33.809
					c9.488,0,17.186-7.688,17.186-17.182V633.63h45.834c9.49,0,17.188-7.684,17.188-17.182v-33.801
					C955.691,573.158,947.994,565.463,938.503,565.463z"/>
			</g>
			<line fill="none" x1="834.859" y1="640.666" x2="765.671" y2="571.476"/>
			<path opacity="0.2" enable-background="new    " d="M950.642,570.5c3.121,3.093,5.039,7.397,5.039,12.151v33.807
				c0,9.498-7.678,17.172-17.188,17.172h-45.824v45.834c0,9.504-7.678,17.191-17.186,17.191h-33.803
				c-9.504,0-17.188-7.688-17.188-17.191V633.63h-45.824c-9.504,0-17.186-7.674-17.186-17.172v-33.807
				c0-4.266,1.541-8.203,4.184-11.17L599.999,405.81v7.639c5.284,3.738,10.526,7.719,15.687,11.98
				c1.787,1.465,3.498,3.008,5.035,4.67c0.734,0.771,1.053,1.994,2.473,4.834c-7.672,7.352-15.438,14.75-23.194,22.186v108.992
				c24.702,0.046,49.401,0.211,74.103,0.49c4.475,0.047,12.225,6.705,12.795,11.01c10.359,77.637-17.463,163.477-86.897,211.533
				c-26.569,18.41-59.228,31.242-98.187,35.998c-65.607,8-129.838-12.602-177.771-53.227l275.958,275.965l94.091,94.09
				c209.578-36.113,378.582-190.855,435.375-392.635L950.642,570.5z"/>
			<g opacity="0.1">
				<path d="M599.999,789.144V566.113c24.702,0.044,49.401,0.209,74.103,0.488c4.475,0.047,12.225,6.705,12.795,11.01
					C697.265,655.248,669.433,741.087,599.999,789.144z"/>
				<path d="M955.675,582.652v33.807c0,9.498-7.682,17.172-17.191,17.172H892.66v45.834c0,9.504-7.672,17.191-17.182,17.191h-33.803
					c-9.504,0-17.182-7.688-17.182-17.191V633.63h-45.824c-9.508,0-17.191-7.674-17.191-17.172v-33.807
					c0-4.266,1.547-8.203,4.184-11.17c3.088-3.697,7.76-6.014,12.998-6.014h45.824v-45.824c0-9.506,7.674-17.184,17.188-17.184
					h33.803c4.75,0,9.059,1.908,12.146,5.037c3.127,3.087,5.035,7.395,5.035,12.146v45.824h45.828c4.746,0,9.064,1.911,12.148,5.037
					C953.763,573.588,955.675,577.898,955.675,582.652z"/>
			</g>
			<line fill="none" x1="599.999" y1="457.119" x2="599.999" y2="413.449"/>
		</g>
	</g>
</g>
</svg>
